<?xml version="1.0" standalone="no"?>
<!DOCTYPE svg PUBLIC "-//W3C//DTD SVG 20010904//EN"
 "http://www.w3.org/TR/2001/REC-SVG-20010904/DTD/svg10.dtd">
<svg version="1.0" xmlns="http://www.w3.org/2000/svg"
 width="720.000000pt" height="720.000000pt" viewBox="0 0 720.000000 720.000000"
 preserveAspectRatio="xMidYMid meet">

<g transform="translate(0.000000,720.000000) scale(0.100000,-0.100000)"
fill="#000000" stroke="none">
<path d="M3352 6939 c-114 -45 -49 57 -1416 -2236 -696 -1168 -1273 -2145
-1282 -2173 -50 -153 34 -338 184 -408 l57 -27 1215 -2 c668 -2 1836 1 2595 5
l1380 7 55 26 c152 72 236 256 186 409 -9 27 -268 468 -575 978 -307 510 -879
1460 -1271 2112 -423 703 -729 1203 -754 1228 -66 70 -125 95 -231 99 -73 2
-100 -1 -143 -18z m208 -207 c13 -10 114 -167 223 -348 2278 -3781 2342 -3888
2345 -3934 3 -34 -2 -53 -20 -80 -48 -70 186 -65 -2635 -65 l-2553 0 -31 32
c-25 24 -33 42 -37 82 -4 48 -1 56 65 168 684 1157 2461 4124 2481 4140 14 12
35 24 47 27 35 7 89 -3 115 -22z"/>
<path d="M3450 5929 c-157 -3 -293 -7 -302 -8 -16 -1 -18 -15 -18 -139 0 -170
13 -203 103 -265 76 -52 108 -95 115 -155 2 -26 8 -51 12 -57 16 -22 39 -1211
24 -1238 -5 -9 -3 -114 5 -261 18 -322 32 -298 -184 -313 l-120 -8 2 -312 c2
-299 3 -314 24 -355 33 -65 66 -104 133 -157 70 -55 232 -151 256 -151 29 0
200 113 271 178 46 42 78 83 99 125 l31 62 -6 305 c-5 190 -11 310 -18 318 -8
10 -42 13 -140 10 l-129 -3 -25 30 -26 30 7 243 c5 174 4 248 -4 257 -16 20
-42 1226 -27 1241 4 4 7 24 7 44 0 57 38 119 105 170 37 29 69 63 83 90 21 41
23 57 21 183 -1 76 -5 139 -8 140 -3 1 -134 -1 -291 -4z m218 -214 c5 -81 -15
-114 -96 -167 -61 -40 -71 -43 -132 -43 -57 0 -73 5 -125 36 -73 43 -100 81
-108 150 -11 87 -13 87 263 85 l195 -1 3 -60z"/>
<path d="M6390 1457 c-128 -36 -178 -108 -200 -285 -14 -112 -14 -762 0 -877
18 -153 77 -238 184 -270 64 -19 119 -19 185 1 95 28 159 120 174 252 l6 52
-38 0 -39 0 -10 -59 c-21 -116 -69 -173 -157 -187 -23 -3 -60 -1 -82 5 -83 23
-123 78 -142 198 -14 92 -15 814 -1 903 22 139 81 200 196 200 105 0 163 -58
184 -181 l12 -70 36 3 37 3 -4 54 c-4 65 -23 122 -56 173 -47 71 -187 113
-285 85z"/>
<path d="M290 740 l0 -710 130 0 130 0 0 320 0 320 150 0 150 0 0 110 0 110
-150 0 -150 0 0 170 0 170 150 0 150 0 0 110 0 110 -280 0 -280 0 0 -710z"/>
<path d="M1041 1398 c-7 -29 -74 -348 -150 -708 l-138 -655 120 -3 c66 -1 121
-1 124 1 2 2 15 66 29 141 23 117 29 136 43 130 30 -12 145 -16 188 -6 l41 10
22 -122 c12 -66 24 -129 27 -138 4 -17 25 -18 254 -18 l249 0 2 348 3 347 81
-280 81 -280 99 0 98 0 81 277 80 278 3 -345 2 -345 239 0 239 0 10 48 c6 26
18 89 27 140 15 79 20 92 34 87 30 -13 146 -17 189 -7 23 5 42 9 42 8 0 -6 41
-233 45 -253 5 -22 9 -23 135 -23 81 0 130 4 130 10 0 6 -9 51 -20 100 -19 85
-20 121 -18 583 l3 492 136 -380 136 -380 37 0 38 0 139 395 138 395 0 -607 1
-608 45 0 45 0 -2 707 -3 708 -45 3 -45 3 -125 -352 c-69 -194 -137 -385 -151
-425 -14 -41 -28 -76 -31 -79 -3 -3 -74 188 -158 425 l-153 430 -44 0 -43 0
-1 -417 c-1 -363 -3 -412 -14 -373 -8 25 -51 212 -97 415 l-83 370 -121 3
c-119 3 -122 2 -127 -20 -3 -13 -65 -308 -139 -657 l-133 -634 -3 657 -2 657
-133 -3 -132 -3 -107 -355 c-59 -195 -115 -380 -124 -410 -11 -36 -18 -49 -23
-40 -4 8 -61 194 -127 413 l-119 397 -132 0 -133 0 -2 -667 -3 -666 -150 664
-150 664 -122 3 -121 3 -11 -53z m174 -659 c19 -101 35 -192 35 -201 0 -16
-10 -18 -74 -18 -41 0 -77 3 -79 8 -2 4 11 79 28 167 18 88 35 177 39 199 4
21 9 36 11 34 3 -2 20 -87 40 -189z m1860 5 c19 -98 35 -189 35 -201 0 -22 -4
-23 -73 -23 -41 0 -76 2 -79 5 -3 3 9 78 27 168 18 89 36 179 39 201 4 21 9
36 12 34 2 -3 20 -85 39 -184z"/>
<path d="M4250 740 l0 -710 230 0 230 0 0 35 0 35 -190 0 -190 0 0 300 0 300
165 0 165 0 0 35 0 35 -162 2 -163 3 -3 303 -2 302 190 0 190 0 0 35 0 35
-230 0 -230 0 0 -710z"/>
<path d="M4740 1415 l0 -35 120 0 120 0 0 -675 0 -675 40 0 40 0 0 675 0 675
120 0 120 0 0 35 0 35 -280 0 -280 0 0 -35z"/>
<path d="M5330 740 l0 -710 40 0 40 0 0 325 0 326 102 -3 103 -3 105 -323 105
-322 42 0 c24 0 43 3 43 6 0 3 -50 152 -110 331 -61 179 -109 327 -108 328 2
1 22 12 45 25 92 51 128 149 127 350 0 190 -31 282 -113 337 -53 36 -96 43
-263 43 l-158 0 0 -710z m319 630 c49 -14 98 -65 118 -124 13 -38 18 -82 17
-176 0 -133 -10 -187 -47 -240 -39 -59 -73 -71 -207 -77 l-120 -6 0 317 0 316
103 0 c56 0 118 -4 136 -10z"/>
<path d="M5990 740 l0 -710 40 0 40 0 0 710 0 710 -40 0 -40 0 0 -710z"/>
<path d="M6620 1060 c0 -5 9 -10 20 -10 18 0 20 -7 20 -75 0 -43 4 -75 10 -75
6 0 10 32 10 75 0 73 1 75 25 75 14 0 25 5 25 10 0 6 -25 10 -55 10 -30 0 -55
-4 -55 -10z"/>
<path d="M6750 985 c0 -101 18 -115 22 -17 l3 67 23 -67 c13 -38 27 -68 32
-68 5 0 20 33 33 73 l25 72 1 -72 c1 -42 5 -73 11 -73 6 0 10 35 10 85 0 78
-2 85 -19 85 -16 0 -24 -13 -37 -60 -9 -33 -20 -60 -24 -60 -4 0 -15 27 -24
60 -13 47 -21 60 -37 60 -17 0 -19 -7 -19 -85z"/>
</g>
</svg>
